{"title":"The Kings Speech 2010 720p WEBSCR AC3 XViD-IMAGiNE","uid":6148445,"size":2193756174,"categoryP":"video","categoryS":"hd___movies","magnet":"?xt=urn:btih:739d5d0d7d065ddf5a2f44e45aaa9bbccb26b516&amp;dn=The+Kings+Speech+2010+720p+WEBSCR+AC3+XViD-IMAGiNE&amp;tr=udp%3A%2F%2Ftracker.openbittorrent.com%3A80&amp;tr=udp%3A%2F%2Fopen.demonii.com%3A1337&amp;tr=udp%3A%2F%2Ftracker.coppersurfer.tk%3A6969&amp;tr=udp%3A%2F%2Fexodus.desync.com%3A6969","seeders":1,"leechers":0,"uploader":"TheCloon","files":-1,"time":1296778495,"description":"Another Fine Release Brought to you from - IMAGiNE                   \n                                                 \n\n********************************************************************************************************************                                \n                  The Kings Speech 2010 720p WEBSCR AC3 XViD - IMAGiNE\n********************************************************************************************************************\n\nRipper ...........: IMAGiNE                                        IMDB Rating.......:8.6/10                             \nVideo Codec.......: XVID                                         Release Date......:31/01/11\nAudio Codec.......:AC3                                           Theatre Date......:26/12/10\nAudio Bitrate.....:448                                              Runtime.......:1h 54mn\nSubtitles.........:NIL                                                 Language..........:ENGLISH\nResolution...... 1280 x 720                                      IMDb URL..........:http://www.imdb.com/title/tt1504320/\n\n\n\nVideo\nID                               : 0\nFormat                           : MPEG-4 Visual\nFormat profile                   : Advanced Simple@L5\nFormat settings, BVOP            : Yes\nFormat settings, QPel            : No\nFormat settings, GMC             : No warppoints\nFormat settings, Matrix          : Default (MPEG)\nMuxing mode                      : Packed bitstream\nCodec ID                         : XVID\nCodec ID/Hint                    : XviD\nDuration                         : 1h 58mn\nBit rate                         : 1 988 Kbps\nWidth                            : 1 280 pixels\nHeight                           : 720 pixels\nDisplay aspect ratio             : 16/9\nFrame rate                       : 23.976 fps\nResolution                       : 24 bits\nColorimetry                      : 4:2:0\nScan type                        : Progressive\nBits/(Pixel*Frame)               : 0.090\nStream size                      : 1.65 GiB (81%)\nWriting library                  : XviD 1.2.1 (UTC 2008-12-04)\n\nAudio\nID                               : 1\nFormat                           : AC-3\nFormat/Info                      : Audio Coding 3\nCodec ID                         : 2000\nDuration                         : 1h 58mn\nBit rate mode                    : Constant\nBit rate                         : 448 Kbps\nChannel(s)                       : 2 channels\nChannel positions                : L R\nSampling rate                    : 48.0 KHz\nStream size                      : 380 MiB (18%)\nAlignment                        : Aligned on interleaves\nInterleave, duration             : 42 ms (1.00 video frame)\nInterleave, preload duration     : 512 ms\n\n\n\nVIDEO:The Kings Speech.mp4  ..... Thanks\nAUDIO:The Kings Speech.mp4  ..... Thanks\n\n[color=yellow]NOTES:[/color]\n\nIMAGiNE bringing you another release..........The Kings Speech 2010\n\nHere we go we our final webscreener encode ,unless anyone else as some more :P\nAnyway once again we've cleaned up the video by changing the brightness,contrast,rgb colours,chroma,\nwhite balance and sharpness.\nAudio was AAC so we converted to AC3 and added 200ms audio fix to it as it seemed oos slightly so.\n\nEnjoy folks .","torrent":{"xt":"urn:btih:739d5d0d7d065ddf5a2f44e45aaa9bbccb26b516","amp;dn":"The+Kings+Speech+2010+720p+WEBSCR+AC3+XViD-IMAGiNE","amp;tr":["udp%3A%2F%2Ftracker.openbittorrent.com%3A80","udp%3A%2F%2Fopen.demonii.com%3A1337","udp%3A%2F%2Ftracker.coppersurfer.tk%3A6969","udp%3A%2F%2Fexodus.desync.com%3A6969"],"infoHash":"739d5d0d7d065ddf5a2f44e45aaa9bbccb26b516","infoHashBuffer":{"type":"Buffer","data":[115,157,93,13,125,6,93,223,90,47,68,228,90,170,155,188,203,38,181,22]},"announce":[],"urlList":[]}}